<svg width="199" height="59" viewBox="0 0 199 59" fill="none" xmlns="http://www.w3.org/2000/svg">

<g clip-path="url(#clip0)">
<path d="M61.2915 17.4142V39.6695C61.2915 40.5772 61.0919 41.4512 60.7594 42.2245C60.2273 43.4347 59.3293 44.4433 58.1654 45.1156L48.8536 50.5282L39.1095 56.2096C38.3778 56.6131 37.613 56.882 36.8148 57.0165C35.5511 57.1846 34.2208 56.9492 33.0568 56.3441C32.9903 56.3105 32.9238 56.2769 32.8573 56.2433L28.2679 53.5538L13.8347 45.1156C12.6707 44.4433 11.7728 43.4011 11.2407 42.2245C10.8748 41.4176 10.7086 40.5772 10.7086 39.6695V17.4142C10.7086 15.1618 11.9058 13.0775 13.8347 11.9681L29.1991 2.99198L31.8596 1.44554L32.8573 0.874034C34.0878 0.168051 35.4513 -0.100895 36.8148 0.100814C37.613 0.201669 38.3778 0.470615 39.1095 0.874034L48.8536 6.55551L58.1654 12.0017C60.0942 13.0775 61.2915 15.1618 61.2915 17.4142Z" fill="#217C58"/>
<path d="M35.9834 54.5288C35.418 54.5288 34.8859 54.3944 34.3871 54.0918L14.8989 42.6952C13.9012 42.1237 13.3026 41.0479 13.3026 39.9049V17.1454C13.3026 16.0023 13.9012 14.9266 14.8989 14.3551L34.3871 2.99209C34.8859 2.72314 35.418 2.55505 35.9834 2.55505C36.5487 2.55505 37.0808 2.68953 37.5797 2.99209L57.0679 14.3551C58.0656 14.9266 58.6642 16.0023 58.6642 17.1454V39.9049C58.6642 41.0479 58.0656 42.1237 57.0679 42.6952L37.5797 54.0918C37.1141 54.3607 36.5487 54.5288 35.9834 54.5288Z" fill="#21B573"/>
<path d="M56.303 6.52185C56.303 17.3133 56.303 29.5167 56.303 40.3082C49.6185 38.0221 42.6679 38.0221 36.0166 40.3082C36.0166 39.3669 36.0166 38.3919 36.0166 37.4506C42.0693 35.5344 48.3547 35.5344 54.4074 37.4506C54.4074 27.1298 54.4074 16.8427 54.4074 6.52185H56.303Z" fill="#56548C"/>
<path d="M35.9834 37.4506C35.9834 38.3919 35.9834 39.3669 35.9834 40.3082C29.2988 38.0221 22.3483 38.0221 15.697 40.3082C15.697 29.5167 15.697 17.3133 15.697 6.52185H17.6259C17.6259 16.8427 17.6259 27.1298 17.6259 37.4506C23.6453 35.5344 29.964 35.5344 35.9834 37.4506Z" fill="#46467C"/>
<path d="M35.9834 37.4507C35.9834 26.592 35.9834 15.7333 35.9834 4.84099C42.036 2.92475 48.3215 2.92475 54.3741 4.84099C54.3741 5.37888 54.3741 5.95039 54.3741 6.5219C54.3741 16.8427 54.3741 27.1299 54.3741 37.4507C48.3215 35.5344 42.036 35.5344 35.9834 37.4507Z" fill="#E4E8EA"/>
<path d="M35.9833 4.87407C35.9833 15.7328 35.9833 26.5914 35.9833 37.4837C29.9307 35.5675 23.6452 35.5675 17.5926 37.4837C17.5926 27.163 17.5926 16.8758 17.5926 6.55498C17.5926 6.01709 17.5926 5.44558 17.5926 4.87407C23.6452 2.95783 29.9639 2.95783 35.9833 4.87407Z" fill="#F9FBFC"/>
<path d="M17.6259 34.5259C17.6259 35.5009 17.6259 36.4758 17.6259 37.4507C23.6785 35.5345 29.964 35.5345 36.0166 37.4507C36.0166 36.4758 36.0166 35.5009 36.0166 34.5259C29.964 32.6097 23.6453 32.6097 17.6259 34.5259Z" fill="#E4E8EA"/>
<path d="M54.3741 34.5259C54.3741 35.5009 54.3741 36.4758 54.3741 37.4507C48.3215 35.5345 42.036 35.5345 35.9834 37.4507C35.9834 36.4758 35.9834 35.5009 35.9834 34.5259C42.036 32.6097 48.3215 32.6097 54.3741 34.5259Z" fill="#CED5D8"/>
<path d="M33.3228 7.09336C28.9995 6.11843 24.6097 6.11843 20.2864 7.09336L20.1866 6.68994C24.5764 5.71501 28.9995 5.71501 33.3894 6.68994L33.3228 7.09336Z" fill="#56548C"/>
<path d="M33.3228 10.5224C28.9995 9.54743 24.6097 9.54743 20.2864 10.5224L20.1866 10.0853C24.5764 9.11039 28.9995 9.11039 33.3894 10.0853L33.3228 10.5224Z" fill="#56548C"/>
<path d="M33.3228 13.9178C28.9995 12.9429 24.6097 12.9429 20.2864 13.9178L20.1866 13.5144C24.5764 12.5395 28.9995 12.5395 33.3894 13.5144L33.3228 13.9178Z" fill="#56548C"/>
<path d="M33.3228 17.3469C28.9995 16.372 24.6097 16.372 20.2864 17.3469L20.1866 16.9435C24.5764 15.9685 28.9995 15.9685 33.3894 16.9435L33.3228 17.3469Z" fill="#56548C"/>
<path d="M33.3228 20.776C28.9995 19.8347 24.6097 19.8347 20.2864 20.776L20.1866 20.3726C24.5764 19.3976 28.9995 19.3976 33.3894 20.3726L33.3228 20.776Z" fill="#56548C"/>
<path d="M33.3228 24.2051C28.9995 23.2301 24.6097 23.2301 20.2864 24.2051L20.1866 23.8016C24.5764 22.8267 28.9995 22.8267 33.3894 23.8016L33.3228 24.2051Z" fill="#56548C"/>
<path d="M33.3228 27.6341C28.9995 26.6592 24.6097 26.6592 20.2864 27.6341L20.1866 27.2307C24.5764 26.2558 28.9995 26.2558 33.3894 27.2307L33.3228 27.6341Z" fill="#56548C"/>
<path d="M33.3228 31.0632C28.9995 30.0883 24.6097 30.0883 20.2864 31.0632L20.1866 30.6598C24.5764 29.6849 28.9995 29.6849 33.3894 30.6598L33.3228 31.0632Z" fill="#56548C"/>
<path d="M51.6803 7.09336C47.357 6.11843 42.9672 6.11843 38.6438 7.09336L38.5441 6.68994C42.9339 5.71501 47.357 5.71501 51.7468 6.68994L51.6803 7.09336Z" fill="#56548C"/>
<path d="M51.6804 10.5224C47.357 9.54743 42.9672 9.54743 38.6439 10.5224L38.5774 10.0853C42.9672 9.11039 47.3903 9.11039 51.7801 10.0853L51.6804 10.5224Z" fill="#56548C"/>
<path d="M51.6803 13.9178C47.357 12.9429 42.9672 12.9429 38.6438 13.9178L38.5441 13.5144C42.9339 12.5395 47.357 12.5395 51.7468 13.5144L51.6803 13.9178Z" fill="#56548C"/>
<path d="M51.6803 17.3469C47.357 16.372 42.9672 16.372 38.6438 17.3469L38.5441 16.9435C42.9339 15.9685 47.357 15.9685 51.7468 16.9435L51.6803 17.3469Z" fill="#56548C"/>
<path d="M51.6803 20.776C47.357 19.801 42.9672 19.801 38.6438 20.776L38.5441 20.3726C42.9339 19.3976 47.357 19.3976 51.7468 20.3726L51.6803 20.776Z" fill="#56548C"/>
<path d="M51.6803 24.2051C47.357 23.2301 42.9672 23.2301 38.6438 24.2051L38.5441 23.8016C42.9339 22.8267 47.357 22.8267 51.7468 23.8016L51.6803 24.2051Z" fill="#56548C"/>
<path d="M51.6804 27.6341C47.357 26.6592 42.9672 26.6592 38.6439 27.6341L38.5774 27.2307C42.9672 26.2558 47.3903 26.2558 51.7801 27.2307L51.6804 27.6341Z" fill="#56548C"/>
<path d="M51.6803 31.0632C47.357 30.0883 42.9672 30.0883 38.6438 31.0632L38.5441 30.6598C42.9339 29.6849 47.357 29.6849 51.7468 30.6598L51.6803 31.0632Z" fill="#56548C"/>
<path d="M51.6138 43.367C51.6138 42.4593 50.8822 41.7533 50.0175 41.7533H48.4545H44.4305H25.8734L22.049 43.098V44.3419L25.8734 45.6866H44.4305H48.4545H50.0175C50.9155 45.6866 51.6138 44.947 51.6138 44.073V43.367Z" fill="#EEE2D2"/>
<path d="M50.0175 41.7538C50.9154 41.7538 51.6138 42.4934 51.6138 43.3675V44.0399C51.6138 44.9476 50.8822 45.6536 50.0175 45.6536H48.4545V45.0821V44.1407V43.1994V42.2581V41.7202H50.0175V41.7538Z" fill="#F49A9A"/>
<path d="M44.4305 41.7533H48.4545V42.2912H44.4305V41.7533Z" fill="#FBD15B"/>
<path d="M48.4545 43.233V44.1407H44.4305V43.7037V43.233H48.4545Z" fill="#FBD15B"/>
<path d="M48.4545 45.082V45.6872H44.4305V45.082H48.4545Z" fill="#FBD15B"/>
<path d="M48.4545 44.1407H44.4305V45.0821H48.4545V44.1407Z" fill="#E2B137"/>
<path d="M48.4545 42.2917V43.2331H44.4305V42.2917H48.4545Z" fill="#E2B137"/>
<path d="M44.4305 41.7533V42.2912V43.2325V43.7032H25.8734V41.7533H44.4305Z" fill="#56548C"/>
<path d="M44.4305 43.7037V44.1408V45.0821V45.6872H25.8734V43.7037H44.4305Z" fill="#46467C"/>
<path d="M20.3529 43.7036L22.0489 43.0985V44.3424L20.3529 43.7036Z" fill="#3B4D57"/>
<path d="M25.8734 41.7533V43.7032V45.6866L22.049 44.3419V43.098L25.8734 41.7533Z" fill="#FFC8AF"/>
<path d="M10.6088 43.8717C27.0707 49.4187 44.8961 49.4187 61.358 43.8717C62.4887 47.3344 63.6527 50.8307 64.7834 54.2934C46.0933 60.6136 25.8734 60.6136 7.15012 54.2934C8.31409 50.7971 9.47806 47.3344 10.6088 43.8717Z" fill="#FBD15B"/>
<path d="M0 47.5697C2.72702 48.8136 5.4873 49.923 8.31409 50.8643C9.07898 48.5447 9.84388 46.1914 10.642 43.8717C12.4046 44.4769 14.1672 44.9811 15.9298 45.4518C16.2291 44.2752 16.5284 43.1321 16.8277 41.9555C12.6374 40.8461 8.51363 39.4005 4.48961 37.5515C4.68914 39.6358 4.92194 41.7538 5.2545 43.8717C3.55843 45.1492 1.79584 46.3931 0 47.5697Z" fill="#F4C653"/>
<path d="M10.6088 43.8718C12.7372 43.3339 14.7991 42.6951 16.7944 41.9891C16.4951 43.1658 16.1958 44.3088 15.8965 45.4854C14.1339 44.9812 12.3714 44.4433 10.6088 43.8718Z" fill="#E2B042"/>
<path d="M72 47.5697C69.273 48.8136 66.5127 49.923 63.6859 50.8643C62.921 48.5447 62.1561 46.1914 61.358 43.8717C59.5954 44.4769 57.8328 44.9811 56.0702 45.4518C55.7709 44.2752 55.4716 43.1321 55.1723 41.9555C59.3626 40.8461 63.4864 39.4005 67.5104 37.5515C67.3108 39.6358 67.078 41.7538 66.7455 43.8717C68.4416 45.1492 70.1709 46.3931 72 47.5697Z" fill="#F4C653"/>
<path d="M61.358 43.8718C59.2295 43.3339 57.1677 42.6951 55.1723 41.9891C55.4716 43.1658 55.7709 44.3088 56.0702 45.4854C57.8328 44.9812 59.6286 44.4433 61.358 43.8718Z" fill="#E2B042"/>
</g>

<defs>
<clipPath id="clip0">
<rect width="72" height="59" fill="white"/>
</clipPath>
</defs>
</svg>
